<?xml version="1.0" encoding="iso-8859-1"?>
<!-- Uploaded to: SVG Repo, www.svgrepo.com, Generator: SVG Repo Mixer Tools -->
<svg height="800px" width="800px" version="1.1" id="Layer_1" xmlns="http://www.w3.org/2000/svg" xmlns:xlink="http://www.w3.org/1999/xlink" 
	 viewBox="0 0 512 512" xml:space="preserve">
<circle style="fill:#E4E7ED;" cx="256" cy="256" r="256"/>
<g>
	<polygon style="fill:#FFFFFF;" points="348.141,363.612 250.843,253.043 256.756,248.299 354.054,358.936 	"/>
	<polygon style="fill:#FFFFFF;" points="348.141,139.311 250.843,249.88 256.756,254.625 354.054,143.987 	"/>
	<polygon style="fill:#FFFFFF;" points="364.575,255.381 262.601,255.381 262.601,247.749 364.575,247.749 	"/>
</g>
<path style="fill:#6C7678;" d="M256.894,52.878H56.041c-3.163,0-5.776,2.613-5.776,5.776v385.822c0,3.163,2.613,5.776,5.776,5.776
	h200.853c3.163,0,5.707-2.613,5.707-5.776V58.654C262.601,55.491,260.057,52.878,256.894,52.878z"/>
<path style="fill:#FEFEFE;" d="M248.092,106.512H64.842c-2.475,0-4.47,1.994-4.47,4.47v281.167c0,2.475,1.994,4.47,4.47,4.47h183.25
	c2.475,0,4.47-1.994,4.47-4.47V110.981C252.562,108.506,250.568,106.512,248.092,106.512z"/>
<g>
	<path style="fill:#C6CBD6;" d="M204.704,77.426h-96.473c-2.2,0-3.988,1.788-3.988,3.988l0,0c0,2.2,1.788,3.988,3.988,3.988h96.473
		c2.2,0,3.988-1.788,3.988-3.988l0,0C208.692,79.214,206.904,77.426,204.704,77.426z"/>
	<circle style="fill:#C6CBD6;" cx="157.258" cy="424.604" r="13.34"/>
	<circle style="fill:#C6CBD6;" cx="77.219" cy="81.758" r="4.538"/>
</g>
<path style="fill:#FFFFFF;" d="M413.121,202.985c26.817,0,48.615,21.729,48.615,48.546s-21.729,48.615-48.615,48.615
	c-26.817,0-48.615-21.729-48.615-48.615C364.506,224.713,386.235,202.985,413.121,202.985z"/>
<path style="fill:#FFE356;" d="M413.121,207.11c24.548,0,44.489,19.941,44.489,44.489s-19.941,44.489-44.489,44.489
	s-44.489-19.941-44.489-44.489S388.573,207.11,413.121,207.11z"/>
<g>
	<path style="fill:#FFFFFF;" d="M396.549,268.515h1.169l6.807-3.713l1.1-4.332c-1.65-1.65-3.301-4.401-4.813-7.77
		c-0.138,0-0.275,0-0.344,0c-1.788,0-3.576-1.925-3.988-4.332c-0.344-1.857,0.344-3.507,1.444-4.126
		c-1.513-7.77-2.544-19.666,10.796-22.554c7.976-1.788,10.864,4.401,11.208,5.088c4.813-2.682,7.908,1.375,8.733,3.507
		c1.444,3.919,0.963,11.139,0.206,14.371c0.825,0.756,1.169,2.132,0.963,3.713c-0.413,2.338-2.132,4.332-3.851,4.332
		c-1.444,3.163-3.369,5.845-5.295,7.77l1.1,4.332h0.069l6.601,3.713h1.238c8.183,0,14.921,5.982,15.746,13.615
		c-8.114,8.595-19.597,13.959-32.318,13.959s-24.204-5.363-32.318-13.959C381.628,274.497,388.435,268.515,396.549,268.515z"/>
	<path style="fill:#FFFFFF;" d="M385.478,64.155c26.817,0,48.615,21.729,48.615,48.546s-21.729,48.615-48.615,48.615
		c-26.817,0-48.615-21.729-48.615-48.615C336.864,85.883,358.593,64.155,385.478,64.155z"/>
</g>
<path style="fill:#FF7069;" d="M385.478,68.28c24.548,0,44.489,19.941,44.489,44.489s-19.941,44.489-44.489,44.489
	c-24.548,0-44.489-19.941-44.489-44.489S360.93,68.28,385.478,68.28z"/>
<g>
	<path style="fill:#FFFFFF;" d="M368.907,129.685h1.169l6.807-3.713l1.1-4.332c-1.65-1.65-3.301-4.401-4.813-7.77
		c-0.138,0-0.275,0-0.413,0c-1.788,0-3.576-1.925-3.988-4.332c-0.344-1.857,0.344-3.507,1.444-4.126
		c-1.513-7.77-2.544-19.666,10.796-22.554c7.976-1.788,10.864,4.401,11.208,5.088c4.813-2.682,7.908,1.375,8.733,3.507
		c1.444,3.919,0.963,11.139,0.206,14.371c0.825,0.756,1.169,2.132,0.963,3.713c-0.413,2.338-2.132,4.332-3.919,4.332
		c-1.444,3.163-3.369,5.845-5.295,7.77l1.1,4.332h0.069l6.601,3.713h1.238c8.183,0,14.921,5.982,15.746,13.615
		c-8.114,8.595-19.597,13.959-32.318,13.959s-24.204-5.363-32.318-13.959c0.825-7.633,7.633-13.615,15.746-13.615H368.907z"/>
	<path style="fill:#FFFFFF;" d="M385.478,341.815c26.817,0,48.615,21.729,48.615,48.546c0,26.817-21.729,48.615-48.615,48.615
		c-26.817,0-48.615-21.729-48.615-48.615C336.864,363.543,358.593,341.815,385.478,341.815z"/>
</g>
<path style="fill:#83CF8F;" d="M385.478,345.872c24.548,0,44.489,19.941,44.489,44.489s-19.941,44.489-44.489,44.489
	c-24.548,0-44.489-19.941-44.489-44.489S360.93,345.872,385.478,345.872z"/>
<path style="fill:#FFFFFF;" d="M368.907,407.276h1.169l6.807-3.713l1.1-4.332c-1.65-1.65-3.301-4.401-4.813-7.77
	c-0.138,0-0.275,0-0.413,0c-1.788,0-3.576-1.925-3.988-4.332c-0.344-1.857,0.344-3.507,1.444-4.126
	c-1.513-7.77-2.544-19.666,10.796-22.554c7.976-1.788,10.864,4.401,11.208,5.088c4.813-2.682,7.908,1.375,8.733,3.507
	c1.444,3.919,0.963,11.139,0.206,14.371c0.825,0.756,1.169,2.132,0.963,3.713c-0.413,2.338-2.132,4.332-3.919,4.332
	c-1.444,3.163-3.369,5.845-5.295,7.77l1.1,4.332h0.069l6.601,3.713h1.238c8.183,0,14.921,5.982,15.746,13.615
	c-8.114,8.595-19.597,13.959-32.318,13.959s-24.204-5.363-32.318-13.959c0.825-7.633,7.633-13.615,15.746-13.615H368.907z"/>
</svg>